<?xml version="1.0" standalone="no"?>
<!DOCTYPE svg PUBLIC "-//W3C//DTD SVG 20010904//EN"
 "http://www.w3.org/TR/2001/REC-SVG-20010904/DTD/svg10.dtd">
<svg version="1.0" xmlns="http://www.w3.org/2000/svg"
 width="1890.000000pt" height="560.000000pt" viewBox="0 0 1890.000000 560.000000"
 preserveAspectRatio="xMidYMid meet">

<g transform="translate(0.000000,560.000000) scale(0.100000,-0.100000)"
fill="#000000" stroke="none">
<path d="M3840 3758 c-94 -288 -177 -540 -185 -560 l-13 -38 197 0 198 0 94
295 c51 162 96 295 99 295 7 0 260 -436 260 -447 0 -5 -38 -66 -84 -138 l-84
-130 -364 -3 -364 -2 -123 -378 c-67 -207 -121 -380 -121 -384 0 -5 88 -8 194
-8 l195 0 68 208 68 207 336 3 336 2 492 786 c271 432 494 791 497 797 3 9
-49 12 -213 12 l-216 0 -189 -305 c-104 -168 -191 -305 -194 -305 -3 0 -85
137 -182 305 l-177 305 -177 3 -177 2 -171 -522z"/>
<path d="M7265 4130 l7 -39 -157 -3 -158 -3 -33 -115 c-19 -63 -34 -118 -34
-122 0 -5 249 -8 554 -8 l555 0 26 88 c14 48 30 100 35 116 6 16 10 33 10 37
0 5 -87 9 -194 9 l-193 0 -7 40 -6 40 -206 0 -206 0 7 -40z"/>
<path d="M9881 4160 c-5 -3 -18 -38 -30 -77 l-22 -73 -172 0 -172 0 -33 -113
c-18 -61 -32 -114 -32 -117 0 -3 70 -4 156 -2 87 2 163 1 170 -2 9 -4 6 -27
-16 -98 l-27 -93 -194 -5 -194 -5 -32 -110 c-18 -60 -33 -111 -33 -112 0 -2
99 -3 220 -3 195 0 220 -2 220 -16 0 -12 -113 -398 -171 -582 -12 -38 -21 -34
-64 27 l-27 40 56 134 c31 73 56 139 56 145 0 17 -264 17 -277 0 -14 -19 -303
-721 -303 -735 0 -18 264 -18 277 0 5 6 19 39 32 72 13 33 27 63 30 67 4 4 35
-28 71 -72 l64 -80 808 0 808 0 53 73 c30 39 68 92 86 117 l32 45 -716 3
c-393 1 -715 5 -715 10 0 4 16 62 36 129 l37 123 155 2 156 3 33 110 c18 61
33 111 33 113 0 1 -69 2 -154 2 l-154 0 39 127 c21 69 42 130 46 134 5 5 85
10 178 11 l169 3 33 110 c18 61 33 111 33 113 0 1 -88 2 -195 2 -107 0 -195 3
-195 8 0 4 13 48 28 97 l28 90 179 5 179 5 33 105 c18 58 33 108 33 113 0 4
-79 7 -175 7 -96 0 -175 3 -175 8 0 4 9 36 20 71 11 36 18 67 16 69 -6 5 -317
8 -325 2z"/>
<path d="M8606 4134 c-220 -13 -403 -27 -407 -31 -4 -5 -107 -350 -230 -768
l-223 -760 -58 -95 c-32 -52 -58 -101 -58 -107 0 -10 39 -13 160 -13 l159 0
29 43 c96 143 103 159 237 612 l130 440 103 3 c56 1 102 -1 102 -5 0 -4 -72
-249 -159 -543 l-158 -535 165 -3 c91 -1 167 -1 169 1 3 4 323 1075 323 1083
0 2 20 4 44 4 l45 0 26 88 c14 48 28 95 31 105 5 16 -14 17 -310 17 -174 0
-316 1 -316 3 0 6 70 241 73 242 1 1 146 10 322 19 176 10 320 18 321 19 1 1
15 48 31 105 l30 102 -91 -1 c-50 -1 -271 -12 -490 -25z"/>
<path d="M12494 4040 c-20 -63 -55 -176 -78 -250 l-42 -135 -249 -5 -248 -5
-128 -415 c-70 -228 -131 -427 -134 -443 l-7 -27 999 2 998 3 44 23 c57 31
138 107 161 152 14 28 95 277 226 693 5 16 -30 17 -635 17 l-640 0 23 68 23
67 592 5 593 5 38 120 38 120 -589 3 c-324 1 -589 5 -589 10 0 4 7 28 15 54
l14 47 -195 3 -194 3 -36 -115z m1116 -649 c0 -20 -103 -337 -116 -358 l-14
-23 -725 0 c-399 0 -725 3 -725 6 0 8 111 368 117 377 6 11 1463 9 1463 -2z"/>
<path d="M10645 3983 c-14 -49 -30 -100 -35 -115 l-9 -28 315 0 c244 0 314 -3
314 -12 0 -7 -20 -78 -45 -158 -63 -207 -29 -190 -390 -190 -270 0 -295 -1
-304 -17 -26 -50 -172 -561 -173 -604 0 -81 48 -141 128 -159 21 -5 183 -10
360 -10 302 0 322 1 338 19 9 10 46 61 81 112 l64 94 -288 5 c-306 5 -322 8
-320 54 0 11 17 75 37 141 l37 120 230 5 c224 5 232 6 287 32 70 33 149 109
176 171 20 46 192 597 192 617 0 7 -157 10 -484 10 l-485 0 -26 -87z"/>
<path d="M6910 3771 c0 -5 5 -45 10 -88 6 -43 12 -87 13 -97 2 -18 -4 -19 -53
-18 -30 1 -60 -1 -66 -5 -9 -7 -74 -214 -74 -235 0 -5 86 -8 190 -8 l190 0 -6
-27 c-4 -16 -14 -50 -23 -76 l-16 -49 -186 1 c-141 1 -188 -1 -196 -11 -5 -7
-22 -58 -38 -113 -15 -55 -30 -106 -32 -112 -4 -10 37 -13 186 -13 132 0 191
-3 191 -11 0 -6 -21 -81 -46 -167 -25 -87 -47 -164 -50 -174 -3 -9 -18 -21
-34 -26 -19 -7 -45 -35 -79 -86 -28 -41 -51 -80 -51 -87 0 -8 35 -10 133 -7
115 4 140 8 188 30 64 29 128 83 159 134 12 18 45 114 73 211 l52 178 192 3
192 2 26 88 c14 48 30 100 36 116 5 17 5 34 1 38 -5 5 -91 8 -190 6 -100 -2
-182 -1 -182 0 0 2 10 37 22 78 l21 74 192 0 192 0 35 118 c19 64 33 120 31
125 -2 4 -29 7 -59 7 -30 0 -54 3 -54 8 1 4 32 50 70 102 l69 95 -152 3 c-83
1 -156 1 -163 -2 -6 -2 -38 -42 -69 -88 -92 -132 -78 -123 -193 -120 l-100 3
-12 87 c-6 48 -14 95 -16 105 -5 15 -21 17 -165 17 -91 0 -159 -4 -159 -9z"/>
<path d="M5520 3131 l0 -589 81 -141 82 -142 101 3 101 3 3 728 2 727 -185 0
-185 0 0 -589z"/>
<path d="M4982 3133 c-16 -27 -65 -104 -109 -173 l-80 -125 162 -285 162 -285
207 2 c114 1 210 4 213 6 6 6 -509 907 -518 907 -4 0 -20 -21 -37 -47z"/>
<path d="M6633 2803 c-4 -10 -44 -110 -90 -223 -46 -113 -83 -208 -83 -213 0
-4 59 -6 131 -5 l132 3 88 219 c49 121 89 223 89 228 0 4 -59 8 -130 8 -115 0
-131 -2 -137 -17z"/>
<path d="M7386 2812 c-6 -10 -76 -407 -76 -432 0 -20 5 -20 128 -18 l127 3 12
60 c13 64 49 269 62 348 l8 47 -128 0 c-70 0 -130 -3 -133 -8z"/>
<path d="M11571 2526 c-61 -85 -111 -157 -111 -160 0 -9 363 -7 376 2 11 7
224 300 224 308 0 2 -85 4 -189 4 l-190 0 -110 -154z"/>
<path d="M12174 2638 c3 -24 11 -92 17 -153 6 -60 13 -113 16 -117 2 -5 87 -8
189 -8 l184 0 -1 43 c0 23 -6 94 -12 157 l-12 115 -194 3 -193 2 6 -42z"/>
<path d="M12711 2638 c0 -24 6 -95 12 -158 l12 -115 184 -3 c102 -1 188 1 192
5 3 5 1 69 -7 143 -7 74 -13 143 -14 153 0 16 -16 17 -190 17 l-190 0 1 -42z"/>
<path d="M13245 2628 c3 -29 10 -97 15 -150 5 -54 12 -102 15 -108 4 -6 77
-10 191 -10 l184 0 -1 38 c-1 20 -6 91 -13 157 l-11 120 -193 3 -192 2 5 -52z"/>
<path d="M3010 2055 c0 -13 626 -15 5575 -15 4949 0 5575 2 5575 15 0 13 -626
15 -5575 15 -4949 0 -5575 -2 -5575 -15z"/>
</g>
</svg>
